<svg xmlns="http://www.w3.org/2000/svg" width="14" height="17"><g fill="#6029AC" fill-rule="evenodd"><rect width="8" height="4" x="3" y="11" rx="2"/><path d="M4.21 0h5.58a2 2 0 0 1 1.99 2.199l-.6 6A2 2 0 0 1 9.19 10H4.81a2 2 0 0 1-1.99-1.801l-.6-6A2 2 0 0 1 4.21 0zM7 6l1.76 1.32a.4.4 0 0 0 .56-.56L8 5l1.32-1.76a.4.4 0 0 0-.56-.56L7 4 5.24 2.68a.4.4 0 0 0-.56.56L6 5 4.68 6.76a.4.4 0 0 0 .56.56L7 6z"/><path fill-rule="nonzero" d="M12 9a1 1 0 0 1 2 0v7a1 1 0 0 1-2 0V9zM0 9a1 1 0 1 1 2 0v7a1 1 0 0 1-2 0V9z"/></g></svg>